<?xml version="1.0" standalone="no"?><!DOCTYPE svg PUBLIC "-//W3C//DTD SVG 1.1//EN" "http://www.w3.org/Graphics/SVG/1.1/DTD/svg11.dtd"><svg t="1560587724587" class="icon" style="" viewBox="0 0 1024 1024" version="1.1" xmlns="http://www.w3.org/2000/svg" p-id="8224" xmlns:xlink="http://www.w3.org/1999/xlink" width="16" height="16"><defs><style type="text/css"></style></defs><path d="M469.333333 170.666667h85.333334v85.333333h-85.333334V170.666667z m0 597.333333h85.333334v85.333333h-85.333334v-85.333333z m384-298.666667v85.333334h-85.333333v-85.333334h85.333333zM256 469.333333v85.333334H170.666667v-85.333334h85.333333z m465.066667-230.4L780.8 298.666667l-59.733333 59.733333L661.333333 298.666667l59.733334-59.733334z m-418.133334 422.4l59.733334 59.733334-59.733334 59.733333-59.733333-59.733333 59.733333-59.733334zM238.933333 302.933333L298.666667 243.2l59.733333 59.733333-55.466667 59.733334-64-59.733334z m422.4 418.133334l59.733334-59.733334 59.733333 59.733334-59.733333 59.733333-59.733334-59.733333zM512 725.333333c-119.466667 0-213.333333-93.866667-213.333333-213.333333s93.866667-213.333333 213.333333-213.333333 213.333333 93.866667 213.333333 213.333333-93.866667 213.333333-213.333333 213.333333z m0-85.333333c72.533333 0 128-55.466667 128-128s-55.466667-128-128-128-128 55.466667-128 128 55.466667 128 128 128z" fill="#444444" p-id="8225"></path></svg>