<?xml version="1.0" standalone="no"?><!DOCTYPE svg PUBLIC "-//W3C//DTD SVG 1.1//EN" "http://www.w3.org/Graphics/SVG/1.1/DTD/svg11.dtd"><svg t="1560588332422" class="icon" style="" viewBox="0 0 1024 1024" version="1.1" xmlns="http://www.w3.org/2000/svg" p-id="9084" xmlns:xlink="http://www.w3.org/1999/xlink" width="16" height="16"><defs><style type="text/css"></style></defs><path d="M469.333333 426.666667h-42.666666V341.333333h170.666666v85.333334h-42.666666v128h-85.333334v-128z m170.666667 179.2V768H384v-162.133333c-76.8-42.666667-128-128-128-221.866667 0-140.8 115.2-256 256-256s256 115.2 256 256c0 93.866667-51.2 179.2-128 221.866667z m-85.333333 29.866666v-85.333333c72.533333-17.066667 128-85.333333 128-166.4 0-93.866667-76.8-170.666667-170.666667-170.666667S341.333333 290.133333 341.333333 384c0 81.066667 55.466667 145.066667 128 166.4V682.666667h85.333334v-46.933334z m42.666666 174.933334v85.333333h-170.666666v-85.333333h170.666666z" fill="#ffc803" p-id="9085"></path></svg>